<svg xmlns="http://www.w3.org/2000/svg" width="176.336" height="66" viewBox="0 0 176.336 66">
  <g id="Ci_Logo_-_White" data-name="Ci Logo - White" transform="translate(-1295 -91)">
    <g id="CI_Logo_-_White-2" data-name="CI Logo - White" transform="translate(1295 91)">
      <path id="Path_1" data-name="Path 1" d="M136.1,59.477v2.648a1.225,1.225,0,0,0,.129.646.842.842,0,0,0,.647.194v.258h-2.458v-.258c.518,0,.841-.258.841-.775V59.67l-.065-.387a.323.323,0,0,0-.323-.194l-.388-.065v-.194l1.423-.517h.194v.969a8.674,8.674,0,0,1,1.1-.646,2.2,2.2,0,0,1,.97-.258c.841,0,1.294.581,1.294,1.808A11.93,11.93,0,0,1,139.4,61.8a3.158,3.158,0,0,1-.065.775c0,.323.194.452.647.452h.259v.258h-2.588v-.258a.842.842,0,0,0,.712-.258,7.449,7.449,0,0,0,.259-2.712c0-.84-.323-1.292-.97-1.292-.323-.065-.841.194-1.553.71Zm5.693-.065-.841.387-.065-.194c0-.258.194-.517.647-.9a1.878,1.878,0,0,1,1.164-.517,1.489,1.489,0,0,1,1.294.646,1.934,1.934,0,0,1,.194,1.033v1.614a3.222,3.222,0,0,0,.065.969c.065.129.129.258.259.258a.777.777,0,0,0,.582-.258l.065.194a2.2,2.2,0,0,1-1.229.646c-.323,0-.518-.258-.582-.71a8.858,8.858,0,0,1-.906.646,1.231,1.231,0,0,1-.518.129,1.166,1.166,0,0,1-.841-.258,1.033,1.033,0,0,1-.323-.71.839.839,0,0,1,.453-.775,3.432,3.432,0,0,1,1.035-.387,4.986,4.986,0,0,0,1.1-.452V59.8a1.354,1.354,0,0,0-.194-.775.8.8,0,0,0-1.164-.129c-.129.129-.259.258-.259.387C141.794,59.218,141.794,59.347,141.794,59.412Zm1.617,2.906V60.9a3.756,3.756,0,0,1-.712.323l-.776.387a.774.774,0,0,0-.259.517.646.646,0,0,0,.712.71C142.57,62.9,142.894,62.706,143.411,62.318Zm3.817-2.906v2.777a.839.839,0,0,0,.194.646,1.361,1.361,0,0,0,.647.129v.258h-2.523v-.258c.323,0,.582-.065.647-.194a1.032,1.032,0,0,0,.194-.71V59.67l-.065-.387a.324.324,0,0,0-.323-.194l-.453-.065v-.194l1.423-.517h.194v.969a4.208,4.208,0,0,1,2.135-.969,1.1,1.1,0,0,1,1.164.969,5.374,5.374,0,0,1,2.135-.969c.776,0,1.229.581,1.229,1.808l-.065,2.325c0,.387.194.517.647.517h.388v.258h-2.652v-.258h.129a.842.842,0,0,0,.647-.194,3.74,3.74,0,0,0,.194-1.679v-.969c0-.9-.323-1.356-.906-1.356a3.238,3.238,0,0,0-1.617.646v2.777a.9.9,0,0,0,.129.581c.129.129.323.129.582.129v.258h-2.458V62.9a.711.711,0,0,0,.906-.9v-2.26a1.161,1.161,0,0,0-.259-.84.971.971,0,0,0-.582-.258,4.6,4.6,0,0,0-1.682.775Zm12.1.646h-3.558l-.065.517a2.065,2.065,0,0,0,.582,1.485,1.748,1.748,0,0,0,1.294.581,2.007,2.007,0,0,0,1.553-.775l.129.129a2.653,2.653,0,0,1-2.135,1.227,1.942,1.942,0,0,1-1.488-.71,2.9,2.9,0,0,1,.065-3.552,2.246,2.246,0,0,1,2.911-.517,1.744,1.744,0,0,1,.518.646,1.935,1.935,0,0,0,.323.581v.387Zm-3.493-.258h2.458a1.678,1.678,0,0,0-.453-.969.906.906,0,0,0-.776-.387C156.479,58.443,156.026,58.9,155.832,59.8Zm-56.6-1.614v4.068c0,.452.259.71.841.71v.258H97.351v-.258a1.1,1.1,0,0,0,.776-.194,1.032,1.032,0,0,0,.194-.71V59.606l-.065-.387a.647.647,0,0,0-.323-.194l-.582-.129V58.7l1.553-.517Zm-1.035-2.26a.516.516,0,0,1,.129-.323.648.648,0,0,1,.388-.129.907.907,0,0,1,.388.129c.129.065.129.194.129.323a.516.516,0,0,1-.129.323.648.648,0,0,1-.776,0Zm4.076,3.552v2.648a1.225,1.225,0,0,0,.129.646.842.842,0,0,0,.647.194v.258h-2.458v-.258c.518,0,.841-.258.841-.775V59.67l-.065-.387a.324.324,0,0,0-.323-.194l-.388-.065v-.194l1.423-.517h.194v.969a8.674,8.674,0,0,1,1.1-.646,2.2,2.2,0,0,1,.97-.258c.841,0,1.294.581,1.294,1.808a11.93,11.93,0,0,1-.065,1.614,3.158,3.158,0,0,1-.065.775c0,.323.194.452.647.452h.259v.258H103.82v-.258a.842.842,0,0,0,.712-.258,7.448,7.448,0,0,0,.259-2.712c0-.84-.323-1.292-.97-1.292a2.719,2.719,0,0,0-1.553.71Zm8.539-2.712v5.166A5.8,5.8,0,0,1,110.1,64.9a1.941,1.941,0,0,1-1.811,1.1,1.814,1.814,0,0,1-.841-.194c-.194-.129-.323-.258-.323-.452a.516.516,0,0,1,.129-.323c.065-.129.194-.129.323-.129a1.036,1.036,0,0,1,.582.258,1.036,1.036,0,0,0,.647.258c.647,0,.97-.581.97-1.808V57.152a2.579,2.579,0,0,0-.129-.969c-.129-.258-.388-.323-.841-.323h-.129V55.6h3.04v.258a1.1,1.1,0,0,0-.776.194A1.741,1.741,0,0,0,110.807,56.764Zm5.758,3.293h-3.558a1.806,1.806,0,0,0-.065.517,2.065,2.065,0,0,0,.582,1.485,1.748,1.748,0,0,0,1.294.581,2.007,2.007,0,0,0,1.553-.775L116.5,62a2.653,2.653,0,0,1-2.135,1.227,1.942,1.942,0,0,1-1.488-.71,2.9,2.9,0,0,1,.065-3.552,2.266,2.266,0,0,1,1.747-.84,2.073,2.073,0,0,1,1.164.323,1.744,1.744,0,0,1,.518.646,1.936,1.936,0,0,0,.323.581v.387Zm-3.493-.258h2.458a1.678,1.678,0,0,0-.453-.969.906.906,0,0,0-.776-.387c-.582,0-1.035.452-1.229,1.356Zm4.27,2.131h.194a1.291,1.291,0,0,0,.453.84,1.036,1.036,0,0,0,.712.323.9.9,0,0,0,.841-.84.968.968,0,0,0-.388-.71,5.5,5.5,0,0,0-.841-.646l-.712-.517a1.032,1.032,0,0,1-.259-.775,1.162,1.162,0,0,1,.453-.969,1.554,1.554,0,0,1,1.1-.387,2.592,2.592,0,0,1,.97.194v1.1h-.194a1.033,1.033,0,0,0-.323-.71.842.842,0,0,0-.647-.258.712.712,0,0,0-.518.194.645.645,0,0,0-.194.452c0,.323.194.581.582.84l1.1.775a1.42,1.42,0,0,1,.582,1.1,1.162,1.162,0,0,1-.453.969,1.554,1.554,0,0,1-1.1.387,1.3,1.3,0,0,1-.453-.065,1.166,1.166,0,0,0-.388-.065l-.194.129h-.194l-.129-1.356Zm9.316.646v.194l-1.617.517v-.969a4.079,4.079,0,0,1-2.07.969,1.23,1.23,0,0,1-.841-.323,1.162,1.162,0,0,1-.388-.9V59.347a.517.517,0,0,0-.323-.517l-.453-.129v-.194l1.553-.323v3.358a1.226,1.226,0,0,0,.323.84,1.036,1.036,0,0,0,.776.258A2.136,2.136,0,0,0,125.039,62V59.412l-.065-.452a1.036,1.036,0,0,0-.388-.194L124,58.637v-.194l1.876-.323v4.068c0,.194.065.323.259.323a.518.518,0,0,0,.259-.065l.259.129Zm.647-.646h.194a1.291,1.291,0,0,0,.453.84,1.036,1.036,0,0,0,.712.323.9.9,0,0,0,.841-.84.968.968,0,0,0-.388-.71,5.5,5.5,0,0,0-.841-.646l-.712-.517a1.032,1.032,0,0,1-.259-.775,1.162,1.162,0,0,1,.453-.969,1.554,1.554,0,0,1,1.1-.387,2.592,2.592,0,0,1,.97.194v1.1h-.194a1.032,1.032,0,0,0-.323-.71.842.842,0,0,0-.647-.258.712.712,0,0,0-.518.194.645.645,0,0,0-.194.452c0,.323.194.581.582.84l1.1.775a1.42,1.42,0,0,1,.582,1.1,1.162,1.162,0,0,1-.453.969,1.554,1.554,0,0,1-1.1.387,1.3,1.3,0,0,1-.453-.065,1.166,1.166,0,0,0-.388-.065l-.194.129h-.194l-.129-1.356Zm3.105-4-.065-.194c.647-.387.906-.775.906-1.227,0-.194-.065-.258-.194-.258H130.8a.906.906,0,0,1-.388-.129.549.549,0,0,1,.065-.775.708.708,0,0,1,1.035.065,1.355,1.355,0,0,1,.259.71,1.613,1.613,0,0,1-.388,1.033,1.875,1.875,0,0,1-.97.775ZM49.35,14.982a14.088,14.088,0,0,0-5.822,6.2,24.124,24.124,0,0,0-2.135,6.135,21.082,21.082,0,0,0-.453,3.293l.582-.84a20.883,20.883,0,0,0-.323,3.616l.582-.969-.065,3.164,1.294-3.164a6.644,6.644,0,0,0,.259.9c.776-1.873,1.488-3.358,2.135-4.585l1.876-3.423a28.225,28.225,0,0,1,2.005-2.841,32.3,32.3,0,0,1,2.523-2.906,7.767,7.767,0,0,1,1.359-.775l1.747-.517,2.458-.581,2.652-.646a19.363,19.363,0,0,0,4.917-1.937,4.894,4.894,0,0,0,2.588-3.229,32.787,32.787,0,0,1-4.4.646l-3.623.065a23.07,23.07,0,0,0-3.3.129,18.4,18.4,0,0,0-6.857,2.26Zm-6.469,2.26-.647.969a15.208,15.208,0,0,1,2.782-1.744l6.534-3.358a16.614,16.614,0,0,0,6.469-6.07,13.553,13.553,0,0,0,1.423-2.712,13.6,13.6,0,0,0,.518-1.421,2.708,2.708,0,0,0,.065-.84A6.641,6.641,0,0,0,59.959.9,1.806,1.806,0,0,0,59.7.065c-.129-.129-.323-.065-.453.194a29.534,29.534,0,0,1-4.334,4.714A32.222,32.222,0,0,1,48.9,8.912,34.3,34.3,0,0,0,42.1,13.174a25.718,25.718,0,0,0-4.852,5.3,3.354,3.354,0,0,0-.453,1.162,1.3,1.3,0,0,1,.841-.129l-.518,1.033.841-.71a1.618,1.618,0,0,1,.776-.452l-.194.71a11.513,11.513,0,0,1,2.135-1.614l-.323.71,1.164-1.033,1.358-.9ZM43.14,2.067a3.162,3.162,0,0,0-.647,1.421,3.676,3.676,0,0,0,0,1.679A3.936,3.936,0,0,0,43.2,6.652a4.333,4.333,0,0,0,1.294,1.1,7.059,7.059,0,0,0,1.617.646,4.536,4.536,0,0,0,1.876,0,5.375,5.375,0,0,0,1.682-.646,6.854,6.854,0,0,0,1.294-1.1,3.484,3.484,0,0,0,.647-1.421,3.417,3.417,0,0,0,0-1.614,3.42,3.42,0,0,0-.712-1.55,4.332,4.332,0,0,0-1.294-1.1A4.986,4.986,0,0,0,47.992.323a4.536,4.536,0,0,0-1.876,0,3.821,3.821,0,0,0-1.682.646,4.2,4.2,0,0,0-1.294,1.1Z" transform="translate(-12.988 0)" fill="#fff"/>
      <path id="Path_2" data-name="Path 2" d="M36.159,46.939v1.292a.645.645,0,0,0,.129.452.842.842,0,0,0,.518.129h.129v.129h-2.2v-.129h.129a1.037,1.037,0,0,0,.518-.129.838.838,0,0,0,.129-.517V44.873a1.032,1.032,0,0,0-.129-.517.777.777,0,0,0-.453-.129h-.194V44.1l.97-.065h.97a2.85,2.85,0,0,1,1.617.387,1.226,1.226,0,0,1,.518.969,1.032,1.032,0,0,1-.259.775,1.617,1.617,0,0,1-.776.517,9.24,9.24,0,0,1,.906.84l.647.646a2.266,2.266,0,0,0,1.553.775v.129h-.323a3.239,3.239,0,0,1-1.229-.194,3.426,3.426,0,0,1-.841-.71l-.518-.517-.776-.71Zm0-2.712V46.81h.518c.97,0,1.423-.452,1.423-1.292s-.518-1.292-1.553-1.292ZM43.275,47H41.011v.323a1.29,1.29,0,0,0,.388.969,1.165,1.165,0,0,0,.841.387,1.23,1.23,0,0,0,.97-.517l.065.065a1.942,1.942,0,0,1-1.423.775,1.165,1.165,0,0,1-.97-.452,1.935,1.935,0,0,1,0-2.325,1.49,1.49,0,0,1,1.876-.323.84.84,0,0,1,.323.452,1.033,1.033,0,0,1,.194.387V47Zm-2.264-.194h1.617a1.935,1.935,0,0,0-.259-.646.777.777,0,0,0-.518-.258C41.4,45.906,41.141,46.229,41.011,46.81Zm3.752-3.1v4.65c0,.323.129.452.453.452h.129v.129H43.6v-.129a1.037,1.037,0,0,0,.518-.129.516.516,0,0,0,.129-.387v-3.81l-.065-.258-.194-.065-.323-.065v-.129l1.1-.258ZM48.321,47H45.993v.323a1.29,1.29,0,0,0,.388.969,1.165,1.165,0,0,0,.841.387,1.23,1.23,0,0,0,.97-.517l.065.065a1.942,1.942,0,0,1-1.423.775,1.165,1.165,0,0,1-.97-.452,1.935,1.935,0,0,1,0-2.325,1.49,1.49,0,0,1,1.876-.323.84.84,0,0,1,.323.452,1.033,1.033,0,0,1,.194.387l.065.258Zm-2.264-.194h1.617a1.935,1.935,0,0,0-.259-.646.777.777,0,0,0-.518-.258c-.453,0-.712.323-.841.9Zm3.364-.258-.518.258v-.129q0-.194.388-.581a1.1,1.1,0,0,1,1.617.065,1.354,1.354,0,0,1,.129.646v1.679c0,.129.065.129.194.129a.582.582,0,0,0,.388-.194l.065.129a1.682,1.682,0,0,1-.776.452c-.194,0-.323-.129-.388-.452a4.4,4.4,0,0,1-.582.387.583.583,0,0,1-.323.065.712.712,0,0,1-.518-.194.645.645,0,0,1,.065-.969,2.2,2.2,0,0,1,.647-.258,1.749,1.749,0,0,0,.712-.323v-.646a1.032,1.032,0,0,0-.129-.517.647.647,0,0,0-.453-.258.518.518,0,0,0-.323.129.258.258,0,0,0-.129.258A.838.838,0,0,0,49.421,46.552Zm1.035,1.873v-.9a3.175,3.175,0,0,1-.453.194,3.621,3.621,0,0,0-.518.258c-.129.065-.129.194-.129.323a.452.452,0,0,0,.453.452C49.939,48.812,50.133,48.683,50.456,48.425Zm1.617-.258H52.2a.968.968,0,0,0,.259.517.647.647,0,0,0,.453.194.906.906,0,0,0,.388-.129c.129-.129.129-.194.129-.387a.581.581,0,0,0-.259-.452l-.518-.452a1.618,1.618,0,0,1-.453-.323.71.71,0,0,1-.194-.517.839.839,0,0,1,.259-.646.971.971,0,0,1,.712-.258,2.851,2.851,0,0,1,.647.129v.71H53.5A.71.71,0,0,0,53.3,46.1a.583.583,0,0,0-.388-.194.452.452,0,0,0-.453.452.646.646,0,0,0,.388.517l.712.517a.9.9,0,0,1,.388.71.839.839,0,0,1-.259.646.906.906,0,0,1-.712.258.647.647,0,0,1-.323-.065.518.518,0,0,0-.259-.065l-.129.129h-.129l-.065-.839ZM55.7,45.777v2.648c0,.323.194.452.582.452v.129H54.532v-.129a1.036,1.036,0,0,0,.518-.129.774.774,0,0,0,.129-.452V46.487l-.194-.129-.388-.065v-.129l1.035-.323H55.7Zm-.647-1.485.129-.194.259-.065a.389.389,0,0,1,.259.065l.129.194-.129.194-.259.065a.389.389,0,0,1-.259-.065C55.049,44.421,55.049,44.356,55.049,44.292Zm2.588,2.325V48.3a.774.774,0,0,0,.129.452.648.648,0,0,0,.453.129v.129H56.667v-.129a.452.452,0,0,0,.518-.517V46.487l-.194-.129-.259-.065v-.129l.906-.323v.581l.712-.452A1.425,1.425,0,0,1,59,45.777c.582,0,.841.387.841,1.162v1.55c0,.194.129.323.453.323h.194v.129H58.8v-.129a.777.777,0,0,0,.453-.129,4.489,4.489,0,0,0,.129-1.744c0-.517-.194-.84-.647-.84a2.59,2.59,0,0,0-1.1.517Zm6.534-.581v.517l-.776-.065a1.548,1.548,0,0,1,.129.517.9.9,0,0,1-.388.775A1.3,1.3,0,0,1,62.1,48.1a.842.842,0,0,1-.388-.065,1.1,1.1,0,0,0-.259.194q-.194.065-.194.194c0,.194.388.258,1.1.258a3.758,3.758,0,0,1,.97.065,1.035,1.035,0,0,1,.453.258.774.774,0,0,1,.259.517,1.1,1.1,0,0,1-.518.84,2.526,2.526,0,0,1-1.617.452A1.3,1.3,0,0,1,61,50.556a.606.606,0,0,1-.065-1.033l.582-.452A.712.712,0,0,1,61,48.877a.581.581,0,0,1-.194-.387c0-.129.129-.258.323-.323l.518-.258A1.033,1.033,0,0,1,61.26,46.1a1.3,1.3,0,0,1,.97-.323,1.425,1.425,0,0,1,.906.323,6.737,6.737,0,0,0,1.035-.065ZM63.006,47a1.032,1.032,0,0,0-.259-.775.647.647,0,0,0-.582-.258.712.712,0,0,0-.518.194.839.839,0,0,0-.259.71,1.29,1.29,0,0,0,.194.71.712.712,0,0,0,.647.387.647.647,0,0,0,.518-.258A1.1,1.1,0,0,0,63.006,47ZM61.26,49.781a.646.646,0,0,0,.323.517,1.3,1.3,0,0,0,.841.258,1.49,1.49,0,0,0,.906-.258.775.775,0,0,0,.388-.646A.453.453,0,0,0,63.2,49.2a12.053,12.053,0,0,1-1.423-.065l-.323.323A.387.387,0,0,0,61.26,49.781Zm8.022-1.614.129.065a1.618,1.618,0,0,1-1.359.84,1.3,1.3,0,0,1-1.035-.517,1.741,1.741,0,0,1-.323-.969,1.678,1.678,0,0,1,.518-1.227,1.813,1.813,0,0,1,1.294-.517,1.943,1.943,0,0,1,.647.129.323.323,0,0,1,.259.323.259.259,0,0,1-.259.258c-.129,0-.259-.065-.453-.258s-.323-.258-.453-.258a.906.906,0,0,0-.712.387,1.612,1.612,0,0,0,0,1.937.906.906,0,0,0,.776.387,1.165,1.165,0,0,0,.97-.581Zm1.682-1.679V48.36a.452.452,0,0,0,.518.517v.129H69.928v-.129a.906.906,0,0,0,.453-.129.774.774,0,0,0,.129-.452V44.55c0-.129-.065-.258-.194-.258l-.323-.065V44.1l.906-.323h.129v2.583a3.108,3.108,0,0,1,1.294-.517c.582,0,.841.387.841,1.162a11.409,11.409,0,0,1-.065,1.55c0,.129.065.194.194.258h.388v.129H72v-.129a.907.907,0,0,0,.453-.129,3.353,3.353,0,0,0,.194-1.614c0-.646-.259-.969-.712-.969A1.943,1.943,0,0,0,70.963,46.487Zm4.14-.71v2.648c0,.323.194.452.582.452v.129H73.939v-.129a1.036,1.036,0,0,0,.518-.129c.129-.065.129-.258.129-.452V46.487l-.194-.129L74,46.294v-.129l1.035-.323H75.1Zm-.647-1.485.129-.194.259-.065.259.065.129.194-.129.194-.259.065-.259-.065Zm2.588-.581v4.65c0,.323.129.452.453.452h.129v.129H75.88v-.129a1.037,1.037,0,0,0,.518-.129.516.516,0,0,0,.129-.387v-3.81l-.065-.258-.194-.065-.323-.065v-.129l1.035-.323.065.065Zm3.493,2.2v-1.55a.258.258,0,0,0-.065-.194.324.324,0,0,1-.194-.065H80.02v-.129l1.1-.323v4.585c0,.194.065.258.259.258h.129l.194-.065v.194l-1.035.387H80.6v-.581a2.266,2.266,0,0,1-1.229.581,1.165,1.165,0,0,1-.906-.452,1.613,1.613,0,0,1-.388-1.1,1.745,1.745,0,0,1,1.747-1.744l.712.194Zm0,2.454V46.616a1.1,1.1,0,0,0-.906-.581.841.841,0,0,0-.712.387,1.483,1.483,0,0,0-.259.9,1.935,1.935,0,0,0,.323,1.033.971.971,0,0,0,.712.452A5.954,5.954,0,0,0,80.538,48.36Zm2.394-1.485v1.55a.387.387,0,0,0,.129.323l.388.065h.323v.129H81.9v-.129a.518.518,0,0,0,.388-.129.774.774,0,0,0,.129-.452V46.423l-.518-.194V46.1l.906-.323h.129v.84c.194-.323.323-.581.453-.646l.323-.129a.518.518,0,0,1,.259.065,2.592,2.592,0,0,1,.388.129l-.194.452a.907.907,0,0,1-.388-.129.518.518,0,0,0-.259-.065c-.129,0-.194.065-.323.194A1.292,1.292,0,0,0,82.931,46.875ZM87.46,47H85.2v.323a1.29,1.29,0,0,0,.388.969,1.165,1.165,0,0,0,.841.387,1.23,1.23,0,0,0,.97-.517l.065.065a1.942,1.942,0,0,1-1.423.775,1.165,1.165,0,0,1-.97-.452,1.935,1.935,0,0,1,0-2.325,1.49,1.49,0,0,1,1.876-.323.84.84,0,0,1,.323.452,1.033,1.033,0,0,1,.194.387ZM85.2,46.81h1.617a1.935,1.935,0,0,0-.259-.646.777.777,0,0,0-.518-.258C85.584,45.906,85.325,46.229,85.2,46.81Zm3.752-.194V48.3a.774.774,0,0,0,.129.452.648.648,0,0,0,.453.129v.129H87.977v-.129a.452.452,0,0,0,.518-.517V46.487l-.194-.129-.259-.065v-.129l.906-.323h.129v.581l.712-.452a1.425,1.425,0,0,1,.647-.194c.582,0,.841.387.841,1.162v1.55c0,.194.129.323.453.323h.194v.129H90.241v-.129a.777.777,0,0,0,.453-.129,4.489,4.489,0,0,0,.129-1.744c0-.517-.194-.84-.647-.84a2.4,2.4,0,0,0-1.229.517ZM96,45.841l.065.323h-.841V48.3a.516.516,0,0,0,.129.387.777.777,0,0,0,.453.129h.323v.129H94.187v-.129a.648.648,0,0,0,.453-.129l.065-.452V46.164h-.582v-.129l.582-.194a2.258,2.258,0,0,1,.582-1.614,1.553,1.553,0,0,1,1.1-.581,1.943,1.943,0,0,1,.582.129c.129.065.259.129.259.258a.258.258,0,0,1-.065.194l-.129.129a1.942,1.942,0,0,0-.906-.387c-.582,0-.841.387-.841,1.227v.581l.712.065Zm3.364,1.614a1.678,1.678,0,0,1,.518-1.227,1.878,1.878,0,0,1,1.164-.452,1.684,1.684,0,0,1,1.229.452,1.613,1.613,0,0,1,.518,1.162,1.551,1.551,0,0,1-1.617,1.614,1.619,1.619,0,0,1-1.229-.452A1.291,1.291,0,0,1,99.363,47.456Zm.582-.258a2.451,2.451,0,0,0,.323,1.227,1.1,1.1,0,0,0,.841.517.906.906,0,0,0,.647-.323,1.419,1.419,0,0,0,.323-.9,1.806,1.806,0,0,0-.388-1.162,1.1,1.1,0,0,0-.841-.517.906.906,0,0,0-.712.387,1.934,1.934,0,0,0-.194.775Zm4.14-.646V48.36a.516.516,0,0,0,.129.387l.453.065v.129H103.05v-.129a.517.517,0,0,0,.582-.581V46.423l-.194-.129-.323-.065V46.1l.97-.323h.129v.646a2.978,2.978,0,0,1,1.423-.646.776.776,0,0,1,.776.646,4.532,4.532,0,0,1,1.359-.646q.776,0,.776,1.162v1.485c0,.258.129.323.388.323h.259v.129h-1.747v-.129h.065a.518.518,0,0,0,.388-.129,2.643,2.643,0,0,0,.129-1.1v-.581c0-.581-.194-.9-.582-.9a1.943,1.943,0,0,0-1.035.452V48.3a.452.452,0,0,0,.518.517v.129h-1.617v-.129a.517.517,0,0,0,.582-.581V46.81a.645.645,0,0,0-.194-.517.453.453,0,0,0-.388-.129A1.554,1.554,0,0,0,104.085,46.552Zm8.28,2.325v1.292a.452.452,0,0,0,.518.517h.194v.129H111.2v-.129h.065a.518.518,0,0,0,.388-.129.774.774,0,0,0,.129-.452V46.681c0-.129-.065-.194-.194-.258l-.259-.065v-.129l.841-.517h.129v.775a2.266,2.266,0,0,1,1.229-.581.841.841,0,0,1,.776.452,1.548,1.548,0,0,1,.323,1.033,1.742,1.742,0,0,1-.518,1.227,1.619,1.619,0,0,1-1.164.517c-.065-.129-.259-.129-.582-.258Zm0-2.325V48.36a1.683,1.683,0,0,0,.906.452.906.906,0,0,0,.647-.323,1.29,1.29,0,0,0,.259-.84,1.548,1.548,0,0,0-.388-1.1.906.906,0,0,0-.647-.323c-.194-.065-.453.065-.776.323Zm3.105.9a1.678,1.678,0,0,1,.518-1.227,1.878,1.878,0,0,1,1.164-.452,1.684,1.684,0,0,1,1.229.452,1.613,1.613,0,0,1,.518,1.162,1.551,1.551,0,0,1-1.617,1.614,1.619,1.619,0,0,1-1.229-.452A1.291,1.291,0,0,1,115.471,47.456Zm.582-.258a2.451,2.451,0,0,0,.323,1.227,1.1,1.1,0,0,0,.841.517.906.906,0,0,0,.647-.323,1.419,1.419,0,0,0,.323-.9,1.806,1.806,0,0,0-.388-1.162,1.1,1.1,0,0,0-.841-.517.906.906,0,0,0-.712.387A1.934,1.934,0,0,0,116.053,47.2Zm4.852,1.808h-.259l-1.164-2.583c-.129-.258-.194-.387-.323-.387l-.259-.065v-.129h1.617v.129c-.323,0-.518.065-.518.194a.516.516,0,0,0,.065.258l.841,1.937.776-1.808a.387.387,0,0,0,.065-.258c0-.194-.194-.323-.582-.323v-.129h1.359v.129a1.1,1.1,0,0,0-.647.581l-.97,2.454Zm4.658-2H123.3v.323a1.29,1.29,0,0,0,.388.969,1.165,1.165,0,0,0,.841.387,1.23,1.23,0,0,0,.97-.517l.065.065a1.941,1.941,0,0,1-1.423.775,1.165,1.165,0,0,1-.97-.452,1.935,1.935,0,0,1,0-2.325,1.49,1.49,0,0,1,1.876-.323.84.84,0,0,1,.323.452,1.033,1.033,0,0,1,.194.387ZM123.3,46.81h1.617a1.934,1.934,0,0,0-.259-.646.777.777,0,0,0-.518-.258C123.687,45.906,123.428,46.229,123.3,46.81Zm3.752.065v1.55a.387.387,0,0,0,.129.323l.388.065h.323v.129h-1.876v-.129a.518.518,0,0,0,.388-.129.774.774,0,0,0,.129-.452V46.423l-.518-.194V46.1l.906-.323h.129v.84c.194-.323.323-.581.453-.646l.323-.129a.518.518,0,0,1,.259.065,2.593,2.593,0,0,1,.388.129l-.194.452a.907.907,0,0,1-.388-.129.519.519,0,0,0-.259-.065c-.129,0-.194.065-.323.194A1.292,1.292,0,0,0,127.051,46.875Zm2.782-1.033h1.1l-.129.323h-.97v1.808a.71.71,0,0,0,.194.517l.323.129a.616.616,0,0,0,.453-.387l.129.129a.905.905,0,0,1-.841.646.647.647,0,0,1-.582-.258,1.1,1.1,0,0,1-.194-.646V46.164h-.388v-.129a1.55,1.55,0,0,0,.776-.969h.129Zm3.558,2.583.647-1.679a1.612,1.612,0,0,0,.129-.452c0-.194-.129-.258-.518-.323v-.129h1.294v.129a.9.9,0,0,0-.647.646l-1.358,3.293c-.194.581-.453.84-.712.84s-.323-.065-.323-.258.065-.194.259-.258l.388-.194a1.032,1.032,0,0,0,.259-.452l.259-.581-1.229-2.583a.452.452,0,0,0-.259-.323.518.518,0,0,0-.388-.129v-.129h1.553v.129c-.323,0-.453.065-.453.194a.516.516,0,0,0,.065.258ZM98,46.875v1.55a.387.387,0,0,0,.129.323l.388.065h.323v.129H96.969v-.129a.518.518,0,0,0,.388-.129.774.774,0,0,0,.129-.452V46.423l-.518-.194V46.1l.906-.323H98v.84c.194-.323.323-.581.453-.646l.323-.129a.518.518,0,0,1,.259.065,2.592,2.592,0,0,1,.388.129l-.194.452a.907.907,0,0,1-.388-.129.519.519,0,0,0-.259-.065c-.129,0-.194.065-.323.194S98,46.746,98,46.875ZM6.725,47.2a10.165,10.165,0,0,1,7.828-3.229,9.781,9.781,0,0,1,5.628,1.679A9.043,9.043,0,0,1,23.609,50.1h.776L24,44.356h-.582a1.036,1.036,0,0,1-.712.258l-2.782-.775A19.634,19.634,0,0,0,14.359,43,14.519,14.519,0,0,0,4.073,46.746,12.26,12.26,0,0,0,0,56.239a11.679,11.679,0,0,0,3.946,9.106A14.051,14.051,0,0,0,13.906,68.9a21.579,21.579,0,0,0,4.852-.581,12.96,12.96,0,0,1,3.3-.517H22.9l1.294-2.389a23.545,23.545,0,0,0,1.229-3.423h-.776a3.679,3.679,0,0,1-.518.84,10.355,10.355,0,0,1-9.251,5.037,10.358,10.358,0,0,1-7.892-3.552,12.644,12.644,0,0,1-3.3-8.912A12.507,12.507,0,0,1,6.725,47.2Zm67.926,7.814A1.292,1.292,0,0,1,75.686,56.3V75.354A2.451,2.451,0,0,1,75.1,76.9a2.85,2.85,0,0,1-2.07.581h-.388v.84h9.38v-.84h-.97a2.915,2.915,0,0,1-1.941-.517,2.194,2.194,0,0,1-.712-1.614V67.669l.776.258a8.618,8.618,0,0,0,2.846.517,7.969,7.969,0,0,0,3.04-.581A8.668,8.668,0,0,0,87.912,65.8a8.9,8.9,0,0,0,2.523-6.264,8.192,8.192,0,0,0-1.747-5.166,5.337,5.337,0,0,0-4.14-2.26c-1.553,0-3.623.969-6.146,2.906V51.46H77.5l-4.14,2.519v.775l1.294.258Zm7.957-.775a4.4,4.4,0,0,1,3.364,1.614,8.048,8.048,0,0,1,1.811,5.618A6.386,6.386,0,0,1,86.425,65.6a4.078,4.078,0,0,1-3.3,1.744A7.235,7.235,0,0,1,78.4,65.215V56.109a6.9,6.9,0,0,1,4.2-1.873Z" transform="translate(0.008 -15.231)" fill="#fff"/>
      <path id="Path_3" data-name="Path 3" d="M85.964,62.357c0-4-1.294-6.006-4.011-5.941-1.294,0-3.623,1.033-7.051,3.164a3.506,3.506,0,0,0-3.752-3.164,7.257,7.257,0,0,0-1.553.194,18.969,18.969,0,0,0-5.563,2.971V56.416h-.582l-4.787,1.679v.71L60.217,59a1.294,1.294,0,0,1,1.035.646A5.417,5.417,0,0,1,61.381,61V68.75a3.741,3.741,0,0,1-.582,2.325,2.955,2.955,0,0,1-2.264.71v.775h8.28v-.775a3.887,3.887,0,0,1-2.135-.387c-.453-.323-.647-1.033-.647-2.131V60.226c2.329-1.55,4.076-2.26,5.3-2.26H69.6a3.043,3.043,0,0,1,1.811.775,3.484,3.484,0,0,1,.97,2.648V68.75a3.29,3.29,0,0,1-.712,2.389,3.238,3.238,0,0,1-2.07.71h-.323v.775H77.49V71.85c-.97,0-1.617-.129-1.941-.517a2.773,2.773,0,0,1-.518-1.937v-9.17c2.264-1.485,4.011-2.2,5.3-2.2,2.005,0,2.976,1.485,2.976,4.52v3.1q0,5.037-.582,5.618a2.915,2.915,0,0,1-2.07.581h-.388v.775H89.2V71.85H87.9c-1.423,0-2.135-.581-2.07-1.808ZM55.883,58.805A8.418,8.418,0,0,0,49.8,56.416a8.807,8.807,0,0,0-5.887,2.131A8,8,0,0,0,41.2,64.811a7.807,7.807,0,0,0,2.523,5.877,8.807,8.807,0,0,0,6.21,2.325,8.094,8.094,0,0,0,5.952-2.389,8,8,0,0,0,2.458-5.877A7.743,7.743,0,0,0,55.883,58.805Zm-2.329,1.033a9.675,9.675,0,0,1,1.811,5.941,6.967,6.967,0,0,1-1.617,4.65,4.531,4.531,0,0,1-3.429,1.679,5.389,5.389,0,0,1-4.4-2.454,10.191,10.191,0,0,1-1.811-6.2A6.451,6.451,0,0,1,45.6,59.128a4.4,4.4,0,0,1,3.558-1.808A5.177,5.177,0,0,1,53.554,59.838ZM188.823,72.56v-.775h-.841c-1.488,0-2.264-.517-2.2-1.614l.129-2.519c.129-1.421.129-3.229.129-5.36,0-3.939-1.423-5.941-4.27-5.941a7.19,7.19,0,0,0-3.105.9c-.712.323-1.941,1.033-3.752,2.131v-3.1h-.582l-4.593,1.679v.646l1.359.258a1.165,1.165,0,0,1,1.035.646,4.124,4.124,0,0,1,.129,1.292v8.331c0,1.679-.906,2.519-2.652,2.519v.775h8.022v-.775a3.169,3.169,0,0,1-2.135-.517,3.246,3.246,0,0,1-.518-2.2V60.355c2.458-1.679,4.2-2.519,5.3-2.519,2.07,0,3.105,1.356,3.105,4.133,0,5.36-.259,8.331-.776,8.847a3.173,3.173,0,0,1-2.329.775v.775h8.539ZM167.281,59l-.194-.194a8.418,8.418,0,0,0-6.081-2.389,8.807,8.807,0,0,0-5.887,2.131,8,8,0,0,0-2.782,6.264,7.808,7.808,0,0,0,2.523,5.877,8.8,8.8,0,0,0,2.264,1.55,9.718,9.718,0,0,0,3.946.775,8.68,8.68,0,0,0,1.294-.065,8.416,8.416,0,0,0,4.722-2.325.9.9,0,0,0,.194-.258,8.064,8.064,0,0,0,2.2-5.683A7.935,7.935,0,0,0,167.281,59Zm-6.922-1.679a5.283,5.283,0,0,1,4.334,2.519A9.675,9.675,0,0,1,166.5,65.78a6.709,6.709,0,0,1-1.617,4.65,4.531,4.531,0,0,1-3.364,1.679,5.389,5.389,0,0,1-4.4-2.454,10.19,10.19,0,0,1-1.811-6.2,6.451,6.451,0,0,1,1.553-4.327A4.531,4.531,0,0,1,160.359,57.32Zm-10.8-1.1h-.582l-5.111,1.808v.581l1.876.387a1.683,1.683,0,0,1,1.164.646A6.317,6.317,0,0,1,146.968,61v8.008a3.16,3.16,0,0,1-.712,2.26,3.822,3.822,0,0,1-2.523.646v.775h8.8v-.775c-1.941,0-2.846-.775-2.846-2.26V56.222Zm-8.345,4.456-.065-3.616a7.84,7.84,0,0,0-3.17-.581,5.181,5.181,0,0,0-3.623,1.227,4.192,4.192,0,0,0-.518,5.747,17.332,17.332,0,0,0,2.329,1.744,14.681,14.681,0,0,1,2.717,2.2,3.679,3.679,0,0,1,1.294,2.389,2.323,2.323,0,0,1-.841,1.873,2.784,2.784,0,0,1-1.359.71l-.647.065a2.2,2.2,0,0,1-.647-.065,3.365,3.365,0,0,1-1.747-.969,5.163,5.163,0,0,1-1.423-2.777h-.647l.453,4.52h.582c.259-.387.453-.517.647-.517a4.407,4.407,0,0,1,1.294.258,4.859,4.859,0,0,0,1.553.258,5.441,5.441,0,0,0,2.911-.775,5.1,5.1,0,0,0,2.005-3.746,4.905,4.905,0,0,0-1.876-3.681l-3.623-2.519a3.59,3.59,0,0,1-1.876-2.712,1.936,1.936,0,0,1,.712-1.614,2.266,2.266,0,0,1,1.682-.646,2.913,2.913,0,0,1,2.07.9,4.13,4.13,0,0,1,1.1,2.454h.712Zm-11.256,0-.129-3.616a7.84,7.84,0,0,0-3.17-.581,5.44,5.44,0,0,0-3.687,1.227,4.065,4.065,0,0,0-1.423,3.229,3.871,3.871,0,0,0,.906,2.519,17.332,17.332,0,0,0,2.329,1.744,14.679,14.679,0,0,1,2.717,2.2,3.679,3.679,0,0,1,1.294,2.389,2.323,2.323,0,0,1-.841,1.873,2.784,2.784,0,0,1-1.359.71l-.647.065a1.815,1.815,0,0,1-.582-.065,3.365,3.365,0,0,1-1.747-.969,4.711,4.711,0,0,1-1.359-2.777h-.647l.453,4.52h.582c.259-.387.453-.517.712-.517a4.86,4.86,0,0,1,1.294.258,4.859,4.859,0,0,0,1.553.258,5.052,5.052,0,0,0,2.846-.775,4.528,4.528,0,0,0,.647-.517,4.388,4.388,0,0,0,1.423-3.229,4.9,4.9,0,0,0-1.876-3.681l-3.623-2.519a3.59,3.59,0,0,1-1.876-2.712,2.129,2.129,0,0,1,.712-1.614,2.331,2.331,0,0,1,1.747-.646,2.913,2.913,0,0,1,2.07.9,4.13,4.13,0,0,1,1.1,2.454h.582ZM118.31,71.14a.905.905,0,0,1-.906-.71,26.7,26.7,0,0,1-.129-3.164V61.9a6.7,6.7,0,0,0-.582-3.423,4.661,4.661,0,0,0-4.2-2.066,6.022,6.022,0,0,0-3.882,1.679C107.248,59.257,106.6,60.226,106.6,61a.838.838,0,0,0,.129.517l2.717-1.292a2.257,2.257,0,0,1-.194-.775,1.872,1.872,0,0,1,.776-1.356,2.4,2.4,0,0,1,1.747-.581,2.718,2.718,0,0,1,2.2,1.162,4,4,0,0,1,.712,2.583v3.164a11.655,11.655,0,0,1-3.493,1.485,9.067,9.067,0,0,0-3.3,1.292,2.969,2.969,0,0,0-1.358,2.583,3.1,3.1,0,0,0,.97,2.389l.129.065a4.016,4.016,0,0,0,2.588.775,3.433,3.433,0,0,0,1.682-.387,4.855,4.855,0,0,0,.776-.452l2.135-1.614a4.9,4.9,0,0,0,.388,1.614,1.553,1.553,0,0,0,1.423.775,4.339,4.339,0,0,0,2.07-.775l1.876-1.356-.194-.581A3.237,3.237,0,0,1,118.31,71.14ZM112.293,66.3a20.391,20.391,0,0,0,2.329-1.1v4.714q-2.523,1.744-3.3,1.744a2.4,2.4,0,0,1-1.617-.646,2.129,2.129,0,0,1-.712-1.679,2.065,2.065,0,0,1,.776-1.744A8.416,8.416,0,0,1,112.293,66.3Zm75.495-10.978V55.9h.194c.323,0,.518-.129.518-.323s-.065-.194-.194-.258a2.267,2.267,0,0,0-.388-.065l-.129.065Zm-.453,1.873V55h.518a2.268,2.268,0,0,1,.776.065.516.516,0,0,1,.259.84,1.036,1.036,0,0,1-.388.194c.129,0,.194.065.259.258l.388.84h-.518l-.323-.71-.129-.194-.259-.065h-.194v.9Z" transform="translate(-14.54 -19.477)" fill="#fff"/>
      <path id="Path_4" data-name="Path 4" d="M265,55.5a2.2,2.2,0,1,1,2.2,2.2A2.2,2.2,0,0,1,265,55.5Z" transform="translate(-93.563 -18.88)" fill="none" stroke="#fff" stroke-miterlimit="10" stroke-width="1"/>
    </g>
  </g>
</svg>
