<svg xmlns="http://www.w3.org/2000/svg" width="16.943" height="16.946" viewBox="0 0 16.943 16.946">
  <g id="search-solid" fill="#919191">
    <path d="M 15.21311664581299 16.69603157043457 C 15.06781673431396 16.69603157043457 14.93094635009766 16.6391716003418 14.8277063369751 16.53593254089355 L 11.52818584442139 13.23641204833984 C 11.42601585388184 13.13424205780029 11.36974620819092 12.99722194671631 11.36974620819092 12.8505916595459 L 11.36974620819092 12.3111515045166 L 11.36974620819092 11.79834175109863 L 10.9657564163208 12.11420154571533 C 9.791756629943848 13.0321216583252 8.380186080932617 13.51730155944824 6.88365650177002 13.51730155944824 C 3.225846290588379 13.51730155944824 0.2499962747097015 10.54146194458008 0.2499962747097015 6.883651733398438 C 0.2499962747097015 3.225841760635376 3.225846290588379 0.250001847743988 6.88365650177002 0.250001847743988 C 10.54146671295166 0.250001847743988 13.51730632781982 3.225841760635376 13.51730632781982 6.883651733398438 C 13.51730632781982 8.380191802978516 13.0321159362793 9.791751861572266 12.11419582366943 10.96575164794922 L 11.79833602905273 11.36974143981934 L 12.31114673614502 11.36974143981934 L 12.8505859375 11.36974143981934 C 12.99721622467041 11.36974143981934 13.13424587249756 11.42601203918457 13.23641586303711 11.52819156646729 L 16.53593635559082 14.827712059021 C 16.7462158203125 15.04025173187256 16.74515533447266 15.38684177398682 16.53262710571289 15.59936141967773 L 15.59604644775391 16.53593254089355 C 15.49357604980469 16.63951110839844 15.3579158782959 16.69603157043457 15.21311664581299 16.69603157043457 Z M 6.88365650177002 2.39756178855896 C 4.410016059875488 2.39756178855896 2.397556304931641 4.410011768341064 2.397556304931641 6.883651733398438 C 2.397556304931641 9.357292175292969 4.410016059875488 11.36974143981934 6.88365650177002 11.36974143981934 C 9.357295989990234 11.36974143981934 11.36974620819092 9.357292175292969 11.36974620819092 6.883651733398438 C 11.36974620819092 4.410011768341064 9.357295989990234 2.39756178855896 6.88365650177002 2.39756178855896 Z" stroke="none"/>
    <path d="M 15.21311664581299 16.44603157043457 C 15.29062652587891 16.44603157043457 15.3631763458252 16.41585159301758 15.41927623748779 16.35915184020996 L 16.35585594177246 15.42259216308594 C 16.47142601013184 15.30702209472656 16.47206687927246 15.11861228942871 16.35916709899902 15.00448226928711 L 13.05964660644531 11.7049617767334 C 13.00468635559082 11.65001201629639 12.93044662475586 11.61974143981934 12.8505859375 11.61974143981934 L 12.31114673614502 11.61974143981934 L 11.61974620819092 11.61974143981934 L 11.61974620819092 12.3111515045166 L 11.61974620819092 12.8505916595459 C 11.61974620819092 12.93045139312744 11.65000629425049 13.00469207763672 11.7049560546875 13.05964183807373 L 15.00447654724121 16.35916137695312 C 15.06049633026123 16.41518211364746 15.13459587097168 16.44603157043457 15.21311664581299 16.44603157043457 M 6.88365650177002 13.26730155944824 C 8.323836326599121 13.26730155944824 9.682156562805176 12.800461769104 10.81177616119385 11.91726207733154 L 11.43213939666748 11.43221664428711 L 11.91725635528564 10.81177139282227 C 12.80046653747559 9.682162284851074 13.26730632781982 8.32384204864502 13.26730632781982 6.883651733398438 C 13.26730632781982 3.363691806793213 10.40361595153809 0.500001847743988 6.88365650177002 0.500001847743988 C 3.363696336746216 0.500001847743988 0.4999962747097015 3.363691806793213 0.4999962747097015 6.883651733398438 C 0.4999962747097015 10.40361213684082 3.363696336746216 13.26730155944824 6.88365650177002 13.26730155944824 M 6.88365650177002 2.14756178855896 C 9.495146751403809 2.14756178855896 11.61974620819092 4.272161960601807 11.61974620819092 6.883651733398438 C 11.61974620819092 9.495141983032227 9.495146751403809 11.61974143981934 6.88365650177002 11.61974143981934 C 4.27216625213623 11.61974143981934 2.147556304931641 9.495141983032227 2.147556304931641 6.883651733398438 C 2.147556304931641 4.272161960601807 4.27216625213623 2.14756178855896 6.88365650177002 2.14756178855896 M 15.2131175994873 16.94602966308594 C 15.01000118255615 16.94602966308594 14.80647087097168 16.86825752258301 14.65092658996582 16.71271133422852 L 11.35140609741211 13.41319179534912 C 11.20248603820801 13.26427173614502 11.11974620819092 13.06239223480225 11.11974620819092 12.8505916595459 L 11.11974620819092 12.3111515045166 C 9.951516151428223 13.22455215454102 8.48211669921875 13.76730155944824 6.88365650177002 13.76730155944824 C 3.081096172332764 13.76730155944824 -3.723144573086756e-06 10.68621158599854 -3.723144573086756e-06 6.883651733398438 C -3.723144573086756e-06 3.08109188079834 3.081096172332764 1.855468781286618e-06 6.88365650177002 1.855468781286618e-06 C 10.68620586395264 1.855468781286618e-06 13.76730632781982 3.08109188079834 13.76730632781982 6.883651733398438 C 13.76730632781982 8.482111930847168 13.22455596923828 9.951511383056641 12.31114673614502 11.11974143981934 L 12.8505859375 11.11974143981934 C 13.06238651275635 11.11974143981934 13.26426601409912 11.20248222351074 13.4131965637207 11.35141181945801 L 16.71271705627441 14.65093231201172 C 17.0204963684082 14.96201229095459 17.0204963684082 15.46505165100098 16.70940589904785 15.77614212036133 L 15.77282619476318 16.71271133422852 C 15.61893653869629 16.86825752258301 15.41623401641846 16.94602966308594 15.2131175994873 16.94602966308594 Z M 6.88365650177002 2.64756178855896 C 4.540566444396973 2.64756178855896 2.647556304931641 4.543871879577637 2.647556304931641 6.883651733398438 C 2.647556304931641 9.226741790771484 4.543876171112061 11.11974143981934 6.88365650177002 11.11974143981934 C 9.226746559143066 11.11974143981934 11.11974620819092 9.223431587219238 11.11974620819092 6.883651733398438 C 11.11974620819092 4.540561676025391 9.22343635559082 2.64756178855896 6.88365650177002 2.64756178855896 Z" stroke="none" fill="#2b6fae"/>
  </g>
</svg>
