<svg xmlns="http://www.w3.org/2000/svg" width="18" height="16.431" viewBox="0 0 18 16.431">
  <g id="noun_basket_1267430" transform="translate(-7.5 -11.21)">
    <path id="Path_6" data-name="Path 6" d="M17.295,20.3v-.2h0V18.722c0-3.1,1.723-5.618,3.849-5.618h2.883c2.126,0,3.849,2.513,3.849,5.618v1.371h0v.2h1.611v-1.45c0-4.216-2.345-7.635-5.235-7.635H20.915c-2.893,0-5.235,3.419-5.235,7.635V20.3Z" transform="translate(-6.091)" fill="#fff"/>
    <path id="Path_7" data-name="Path 7" d="M11,60.79v1.118h0a5.94,5.94,0,0,0,5.768,6.034h4.674a5.937,5.937,0,0,0,5.768-6.031h0V60.79Z" transform="translate(-2.606 -40.301)" fill="#fff"/>
    <rect id="Rectangle_8" data-name="Rectangle 8" width="18" height="2.553" rx="1.277" transform="translate(7.5 18.926)" fill="#fff"/>
  </g>
</svg>
